<svg width="512" height="512" viewBox="0 0 512 512" fill="none" xmlns="http://www.w3.org/2000/svg">
<g clip-path="url(#clip0_1_7)">
<rect width="512" height="512" fill="white"/>
<path d="M134.84 351.12C123.8 351.12 113.88 349.2 105.08 345.36C96.44 341.36 89.64 335.92 84.68 329.04C79.72 322 77.16 313.92 77 304.8H100.28C101.08 312.64 104.28 319.28 109.88 324.72C115.64 330 123.96 332.64 134.84 332.64C145.24 332.64 153.4 330.08 159.32 324.96C165.4 319.68 168.44 312.96 168.44 304.8C168.44 298.4 166.68 293.2 163.16 289.2C159.64 285.2 155.24 282.16 149.96 280.08C144.68 278 137.56 275.76 128.6 273.36C117.56 270.48 108.68 267.6 101.96 264.72C95.4 261.84 89.72 257.36 84.92 251.28C80.28 245.04 77.96 236.72 77.96 226.32C77.96 217.2 80.28 209.12 84.92 202.08C89.56 195.04 96.04 189.6 104.36 185.76C112.84 181.92 122.52 180 133.4 180C149.08 180 161.88 183.92 171.8 191.76C181.88 199.6 187.56 210 188.84 222.96H164.84C164.04 216.56 160.68 210.96 154.76 206.16C148.84 201.2 141 198.72 131.24 198.72C122.12 198.72 114.68 201.12 108.92 205.92C103.16 210.56 100.28 217.12 100.28 225.6C100.28 231.68 101.96 236.64 105.32 240.48C108.84 244.32 113.08 247.28 118.04 249.36C123.16 251.28 130.28 253.52 139.4 256.08C150.44 259.12 159.32 262.16 166.04 265.2C172.76 268.08 178.52 272.64 183.32 278.88C188.12 284.96 190.52 293.28 190.52 303.84C190.52 312 188.36 319.68 184.04 326.88C179.72 334.08 173.32 339.92 164.84 344.4C156.36 348.88 146.36 351.12 134.84 351.12Z" fill="#F5F5F5"/>
<path d="M244.499 242.16C248.819 234.64 255.219 228.4 263.699 223.44C272.339 218.32 282.339 215.76 293.699 215.76C305.379 215.76 315.939 218.56 325.379 224.16C334.979 229.76 342.499 237.68 347.939 247.92C353.379 258 356.099 269.76 356.099 283.2C356.099 296.48 353.379 308.32 347.939 318.72C342.499 329.12 334.979 337.2 325.379 342.96C315.939 348.72 305.379 351.6 293.699 351.6C282.499 351.6 272.579 349.12 263.939 344.16C255.459 339.04 248.979 332.72 244.499 325.2V411.84H222.659V217.92H244.499V242.16ZM333.779 283.2C333.779 273.28 331.779 264.64 327.779 257.28C323.779 249.92 318.339 244.32 311.459 240.48C304.739 236.64 297.299 234.72 289.139 234.72C281.139 234.72 273.699 236.72 266.819 240.72C260.099 244.56 254.659 250.24 250.499 257.76C246.499 265.12 244.499 273.68 244.499 283.44C244.499 293.36 246.499 302.08 250.499 309.6C254.659 316.96 260.099 322.64 266.819 326.64C273.699 330.48 281.139 332.4 289.139 332.4C297.299 332.4 304.739 330.48 311.459 326.64C318.339 322.64 323.779 316.96 327.779 309.6C331.779 302.08 333.779 293.28 333.779 283.2Z" fill="#F5F5F5"/>
<path d="M504.847 278.64C504.847 282.8 504.607 287.2 504.127 291.84H399.007C399.807 304.8 404.207 314.96 412.207 322.32C420.367 329.52 430.207 333.12 441.727 333.12C451.167 333.12 459.007 330.96 465.247 326.64C471.647 322.16 476.127 316.24 478.687 308.88H502.207C498.687 321.52 491.647 331.84 481.087 339.84C470.527 347.68 457.407 351.6 441.727 351.6C429.247 351.6 418.047 348.8 408.127 343.2C398.367 337.6 390.687 329.68 385.087 319.44C379.487 309.04 376.687 297.04 376.687 283.44C376.687 269.84 379.407 257.92 384.847 247.68C390.287 237.44 397.887 229.6 407.647 224.16C417.567 218.56 428.927 215.76 441.727 215.76C454.207 215.76 465.247 218.48 474.847 223.92C484.447 229.36 491.807 236.88 496.927 246.48C502.207 255.92 504.847 266.64 504.847 278.64ZM482.287 274.08C482.287 265.76 480.447 258.64 476.767 252.72C473.087 246.64 468.047 242.08 461.647 239.04C455.407 235.84 448.447 234.24 440.767 234.24C429.727 234.24 420.287 237.76 412.447 244.8C404.767 251.84 400.367 261.6 399.247 274.08H482.287Z" fill="#F5F5F5"/>
<path d="M525.515 283.44C525.515 269.84 528.235 258 533.675 247.92C539.115 237.68 546.635 229.76 556.235 224.16C565.995 218.56 577.115 215.76 589.595 215.76C605.755 215.76 619.035 219.68 629.435 227.52C639.995 235.36 646.955 246.24 650.315 260.16H626.795C624.555 252.16 620.155 245.84 613.595 241.2C607.195 236.56 599.195 234.24 589.595 234.24C577.115 234.24 567.035 238.56 559.355 247.2C551.675 255.68 547.835 267.76 547.835 283.44C547.835 299.28 551.675 311.52 559.355 320.16C567.035 328.8 577.115 333.12 589.595 333.12C599.195 333.12 607.195 330.88 613.595 326.4C619.995 321.92 624.395 315.52 626.795 307.2H650.315C646.795 320.64 639.755 331.44 629.195 339.6C618.635 347.6 605.435 351.6 589.595 351.6C577.115 351.6 565.995 348.8 556.235 343.2C546.635 337.6 539.115 329.68 533.675 319.44C528.235 309.2 525.515 297.2 525.515 283.44Z" fill="#F5F5F5"/>
<path d="M224 392H552V412H224V392Z" fill="#F5F5F5"/>
<path d="M94.84 311.12C83.8 311.12 73.88 309.2 65.08 305.36C56.44 301.36 49.64 295.92 44.68 289.04C39.72 282 37.16 273.92 37 264.8H60.28C61.08 272.64 64.28 279.28 69.88 284.72C75.64 290 83.96 292.64 94.84 292.64C105.24 292.64 113.4 290.08 119.32 284.96C125.4 279.68 128.44 272.96 128.44 264.8C128.44 258.4 126.68 253.2 123.16 249.2C119.64 245.2 115.24 242.16 109.96 240.08C104.68 238 97.56 235.76 88.6 233.36C77.56 230.48 68.68 227.6 61.96 224.72C55.4 221.84 49.72 217.36 44.92 211.28C40.28 205.04 37.96 196.72 37.96 186.32C37.96 177.2 40.28 169.12 44.92 162.08C49.56 155.04 56.04 149.6 64.36 145.76C72.84 141.92 82.52 140 93.4 140C109.08 140 121.88 143.92 131.8 151.76C141.88 159.6 147.56 170 148.84 182.96H124.84C124.04 176.56 120.68 170.96 114.76 166.16C108.84 161.2 101 158.72 91.24 158.72C82.12 158.72 74.68 161.12 68.92 165.92C63.16 170.56 60.28 177.12 60.28 185.6C60.28 191.68 61.96 196.64 65.32 200.48C68.84 204.32 73.08 207.28 78.04 209.36C83.16 211.28 90.28 213.52 99.4 216.08C110.44 219.12 119.32 222.16 126.04 225.2C132.76 228.08 138.52 232.64 143.32 238.88C148.12 244.96 150.52 253.28 150.52 263.84C150.52 272 148.36 279.68 144.04 286.88C139.72 294.08 133.32 299.92 124.84 304.4C116.36 308.88 106.36 311.12 94.84 311.12Z" fill="black"/>
<path d="M204.499 202.16C208.819 194.64 215.219 188.4 223.699 183.44C232.339 178.32 242.339 175.76 253.699 175.76C265.379 175.76 275.939 178.56 285.379 184.16C294.979 189.76 302.499 197.68 307.939 207.92C313.379 218 316.099 229.76 316.099 243.2C316.099 256.48 313.379 268.32 307.939 278.72C302.499 289.12 294.979 297.2 285.379 302.96C275.939 308.72 265.379 311.6 253.699 311.6C242.499 311.6 232.579 309.12 223.939 304.16C215.459 299.04 208.979 292.72 204.499 285.2V371.84H182.659V177.92H204.499V202.16ZM293.779 243.2C293.779 233.28 291.779 224.64 287.779 217.28C283.779 209.92 278.339 204.32 271.459 200.48C264.739 196.64 257.299 194.72 249.139 194.72C241.139 194.72 233.699 196.72 226.819 200.72C220.099 204.56 214.659 210.24 210.499 217.76C206.499 225.12 204.499 233.68 204.499 243.44C204.499 253.36 206.499 262.08 210.499 269.6C214.659 276.96 220.099 282.64 226.819 286.64C233.699 290.48 241.139 292.4 249.139 292.4C257.299 292.4 264.739 290.48 271.459 286.64C278.339 282.64 283.779 276.96 287.779 269.6C291.779 262.08 293.779 253.28 293.779 243.2Z" fill="black"/>
<path d="M464.847 238.64C464.847 242.8 464.607 247.2 464.127 251.84H359.007C359.807 264.8 364.207 274.96 372.207 282.32C380.367 289.52 390.207 293.12 401.727 293.12C411.167 293.12 419.007 290.96 425.247 286.64C431.647 282.16 436.127 276.24 438.687 268.88H462.207C458.687 281.52 451.647 291.84 441.087 299.84C430.527 307.68 417.407 311.6 401.727 311.6C389.247 311.6 378.047 308.8 368.127 303.2C358.367 297.6 350.687 289.68 345.087 279.44C339.487 269.04 336.687 257.04 336.687 243.44C336.687 229.84 339.407 217.92 344.847 207.68C350.287 197.44 357.887 189.6 367.647 184.16C377.567 178.56 388.927 175.76 401.727 175.76C414.207 175.76 425.247 178.48 434.847 183.92C444.447 189.36 451.807 196.88 456.927 206.48C462.207 215.92 464.847 226.64 464.847 238.64ZM442.287 234.08C442.287 225.76 440.447 218.64 436.767 212.72C433.087 206.64 428.047 202.08 421.647 199.04C415.407 195.84 408.447 194.24 400.767 194.24C389.727 194.24 380.287 197.76 372.447 204.8C364.767 211.84 360.367 221.6 359.247 234.08H442.287Z" fill="black"/>
<path d="M485.515 243.44C485.515 229.84 488.235 218 493.675 207.92C499.115 197.68 506.635 189.76 516.235 184.16C525.995 178.56 537.115 175.76 549.595 175.76C565.755 175.76 579.035 179.68 589.435 187.52C599.995 195.36 606.955 206.24 610.315 220.16H586.795C584.555 212.16 580.155 205.84 573.595 201.2C567.195 196.56 559.195 194.24 549.595 194.24C537.115 194.24 527.035 198.56 519.355 207.2C511.675 215.68 507.835 227.76 507.835 243.44C507.835 259.28 511.675 271.52 519.355 280.16C527.035 288.8 537.115 293.12 549.595 293.12C559.195 293.12 567.195 290.88 573.595 286.4C579.995 281.92 584.395 275.52 586.795 267.2H610.315C606.795 280.64 599.755 291.44 589.195 299.6C578.635 307.6 565.435 311.6 549.595 311.6C537.115 311.6 525.995 308.8 516.235 303.2C506.635 297.6 499.115 289.68 493.675 279.44C488.235 269.2 485.515 257.2 485.515 243.44Z" fill="black"/>
<path d="M184 352H512V372H184V352Z" fill="black"/>
</g>
<defs>
<clipPath id="clip0_1_7">
<rect width="512" height="512" fill="white"/>
</clipPath>
</defs>
</svg>
